<svg width="32" height="33" viewBox="0 0 32 33" fill="none" xmlns="http://www.w3.org/2000/svg">
<g clip-path="url(#clip0_282_4265)">
<path d="M16 16.5C17.5823 16.5 19.129 16.0308 20.4446 15.1518C21.7602 14.2727 22.7855 13.0233 23.391 11.5615C23.9965 10.0997 24.155 8.49113 23.8463 6.93928C23.5376 5.38743 22.7757 3.96197 21.6569 2.84315C20.538 1.72433 19.1126 0.962403 17.5607 0.653721C16.0089 0.34504 14.4003 0.503466 12.9385 1.10897C11.4767 1.71447 10.2273 2.73985 9.34824 4.05544C8.46919 5.37104 8 6.91775 8 8.5C8.00212 10.6211 8.84565 12.6547 10.3455 14.1545C11.8453 15.6544 13.8789 16.4979 16 16.5ZM16 3.16667C17.0548 3.16667 18.086 3.47947 18.963 4.0655C19.8401 4.65153 20.5237 5.48449 20.9274 6.45903C21.331 7.43357 21.4366 8.50592 21.2309 9.54049C21.0251 10.5751 20.5171 11.5254 19.7712 12.2712C19.0254 13.0171 18.075 13.5251 17.0405 13.7309C16.0059 13.9366 14.9336 13.831 13.959 13.4274C12.9845 13.0237 12.1515 12.3401 11.5655 11.463C10.9795 10.586 10.6667 9.55484 10.6667 8.5C10.6667 7.08552 11.2286 5.72896 12.2288 4.72877C13.229 3.72857 14.5855 3.16667 16 3.16667Z" fill="#979797"/>
<path d="M16 19.1675C12.8185 19.171 9.76829 20.4364 7.51862 22.6861C5.26894 24.9358 4.00353 27.986 4 31.1675C4 31.5211 4.14048 31.8602 4.39052 32.1103C4.64057 32.3603 4.97971 32.5008 5.33333 32.5008C5.68696 32.5008 6.02609 32.3603 6.27614 32.1103C6.52619 31.8602 6.66667 31.5211 6.66667 31.1675C6.66667 28.6921 7.65 26.3182 9.40034 24.5678C11.1507 22.8175 13.5246 21.8341 16 21.8341C18.4754 21.8341 20.8493 22.8175 22.5997 24.5678C24.35 26.3182 25.3333 28.6921 25.3333 31.1675C25.3333 31.5211 25.4738 31.8602 25.7239 32.1103C25.9739 32.3603 26.313 32.5008 26.6667 32.5008C27.0203 32.5008 27.3594 32.3603 27.6095 32.1103C27.8595 31.8602 28 31.5211 28 31.1675C27.9965 27.986 26.7311 24.9358 24.4814 22.6861C22.2317 20.4364 19.1815 19.171 16 19.1675Z" fill="#979797"/>
</g>
<defs>
<clipPath id="clip0_282_4265">
<rect width="32" height="32" fill="white" transform="translate(0 0.5)"/>
</clipPath>
</defs>
</svg>
