<svg xmlns="http://www.w3.org/2000/svg" width="512" height="512" viewBox="0 0 512 512">
  <defs>
    <linearGradient id="bg" x1="0" y1="0" x2="1" y2="1">
      <stop offset="0" stop-color="#1f355d"/>
      <stop offset="1" stop-color="#2c7be5"/>
    </linearGradient>
    <linearGradient id="card" x1="0" y1="0" x2="0" y2="1">
      <stop offset="0" stop-color="#fff5e6"/>
      <stop offset="1" stop-color="#ffe0b8"/>
    </linearGradient>
  </defs>

  <rect width="512" height="512" rx="108" fill="url(#bg)"/>
  <rect x="90" y="70" width="332" height="372" rx="42" fill="url(#card)"/>

  <circle cx="256" cy="284" r="90" fill="#f97316"/>
  <path d="M166 284h180c0 50-40 90-90 90s-90-40-90-90z" fill="#7c2d12"/>
  <path d="M188 262c10-19 24-28 38-28s28 9 30 28c2-19 16-28 30-28s28 9 38 28" fill="none" stroke="#fff7ed" stroke-width="12" stroke-linecap="round"/>

  <path d="M136 142h124" stroke="#6b4f3c" stroke-width="18" stroke-linecap="round"/>
  <path d="M136 188h86" stroke="#8c6a51" stroke-width="14" stroke-linecap="round"/>

  <circle cx="352" cy="146" r="20" fill="#38bdf8"/>
  <circle cx="400" cy="194" r="16" fill="#38bdf8"/>
  <circle cx="304" cy="194" r="16" fill="#38bdf8"/>
  <path d="M352 146l48 48M352 146l-48 48M304 194h96" stroke="#bae6fd" stroke-width="10" stroke-linecap="round"/>
</svg>
